<svg xmlns="http://www.w3.org/2000/svg" viewBox="0 0 200 200" width="200" height="200">
  <defs>
    <linearGradient id="bg" x1="0%" y1="0%" x2="100%" y2="100%">
      <stop offset="0%" style="stop-color:#1a1a2e"/>
      <stop offset="100%" style="stop-color:#16213e"/>
    </linearGradient>
    <linearGradient id="check" x1="0%" y1="0%" x2="100%" y2="100%">
      <stop offset="0%" style="stop-color:#00d9ff"/>
      <stop offset="100%" style="stop-color:#00ff88"/>
    </linearGradient>
  </defs>

  <circle cx="100" cy="100" r="90" fill="url(#bg)" stroke="#00d9ff" stroke-width="2" opacity="0.9"/>

  <g opacity="0.15" stroke="#00d9ff" stroke-width="0.5">
    <line x1="40" y1="60" x2="160" y2="60"/>
    <line x1="40" y1="80" x2="160" y2="80"/>
    <line x1="40" y1="100" x2="160" y2="100"/>
    <line x1="40" y1="120" x2="160" y2="120"/>
    <line x1="40" y1="140" x2="160" y2="140"/>
    <line x1="60" y1="40" x2="60" y2="160"/>
    <line x1="80" y1="40" x2="80" y2="160"/>
    <line x1="100" y1="40" x2="100" y2="160"/>
    <line x1="120" y1="40" x2="120" y2="160"/>
    <line x1="140" y1="40" x2="140" y2="160"/>
  </g>

  <path d="M 60 100 L 90 130 L 145 70" fill="none" stroke="url(#check)" stroke-width="12" stroke-linecap="round" stroke-linejoin="round"/>

  <circle cx="150" cy="50" r="4" fill="#00ff88" opacity="0.8"/>
  <circle cx="50" cy="150" r="3" fill="#00d9ff" opacity="0.6"/>
  <circle cx="145" cy="145" r="3" fill="#00d9ff" opacity="0.6"/>

  <text x="100" y="178" font-family="monospace" font-size="12" fill="#00d9ff" text-anchor="middle" opacity="0.7">kibble-verifier</text>
</svg>